<mxfile host="app.diagrams.net" modified="2021-02-13T16:38:57.003Z" agent="5.0 (Windows NT 10.0; Win64; x64) AppleWebKit/537.36 (KHTML, like Gecko) Chrome/88.0.4324.150 Safari/537.36" etag="syIkNnvZIF46v2fRd9Qj" version="14.3.1" type="github">
  <diagram id="C5RBs43oDa-KdzZeNtuy" name="Page-1">
    <mxGraphModel dx="1038" dy="548" grid="1" gridSize="10" guides="1" tooltips="1" connect="1" arrows="1" fold="1" page="1" pageScale="1" pageWidth="827" pageHeight="1169" math="0" shadow="0">
      <root>
        <mxCell id="WIyWlLk6GJQsqaUBKTNV-0" />
        <mxCell id="WIyWlLk6GJQsqaUBKTNV-1" parent="WIyWlLk6GJQsqaUBKTNV-0" />
        <mxCell id="n0w97MOFuFyzSdgVQTcK-1" value="JPA的分页类&lt;br&gt;Page" style="rounded=1;whiteSpace=wrap;html=1;" vertex="1" parent="WIyWlLk6GJQsqaUBKTNV-1">
          <mxGeometry x="60" y="530" width="90" height="60" as="geometry" />
        </mxCell>
        <mxCell id="n0w97MOFuFyzSdgVQTcK-3" value="把Page封装成&lt;br&gt;Page4Navigator&lt;span style=&quot;font-size: 10px&quot;&gt;&amp;lt;Category&amp;gt;&lt;br&gt;&lt;/span&gt;处理分页数据" style="rounded=1;whiteSpace=wrap;html=1;" vertex="1" parent="WIyWlLk6GJQsqaUBKTNV-1">
          <mxGeometry x="140" y="410" width="170" height="70" as="geometry" />
        </mxCell>
        <mxCell id="n0w97MOFuFyzSdgVQTcK-5" value="" style="endArrow=classic;html=1;" edge="1" parent="WIyWlLk6GJQsqaUBKTNV-1">
          <mxGeometry width="50" height="50" relative="1" as="geometry">
            <mxPoint x="130" y="530" as="sourcePoint" />
            <mxPoint x="180" y="480" as="targetPoint" />
          </mxGeometry>
        </mxCell>
        <mxCell id="n0w97MOFuFyzSdgVQTcK-6" value="新增带参list方法&lt;br&gt;将数据参数传入封装好的&lt;br&gt;Page4Navigator&lt;span style=&quot;font-size: 10px&quot;&gt;&amp;lt;Category&amp;gt;&lt;/span&gt;" style="rounded=1;whiteSpace=wrap;html=1;" vertex="1" parent="WIyWlLk6GJQsqaUBKTNV-1">
          <mxGeometry x="390" y="410" width="166" height="70" as="geometry" />
        </mxCell>
        <mxCell id="n0w97MOFuFyzSdgVQTcK-7" value="" style="endArrow=classic;html=1;entryX=0;entryY=0.5;entryDx=0;entryDy=0;" edge="1" parent="WIyWlLk6GJQsqaUBKTNV-1" target="n0w97MOFuFyzSdgVQTcK-6">
          <mxGeometry width="50" height="50" relative="1" as="geometry">
            <mxPoint x="310" y="445" as="sourcePoint" />
            <mxPoint x="360" y="395" as="targetPoint" />
          </mxGeometry>
        </mxCell>
        <mxCell id="n0w97MOFuFyzSdgVQTcK-8" value="修改list方法&lt;br&gt;接收start和size参数" style="rounded=1;whiteSpace=wrap;html=1;" vertex="1" parent="WIyWlLk6GJQsqaUBKTNV-1">
          <mxGeometry x="413" y="555" width="120" height="60" as="geometry" />
        </mxCell>
        <mxCell id="n0w97MOFuFyzSdgVQTcK-9" value="&amp;nbsp;获取分页数据" style="text;html=1;strokeColor=none;fillColor=none;align=center;verticalAlign=middle;whiteSpace=wrap;rounded=0;" vertex="1" parent="WIyWlLk6GJQsqaUBKTNV-1">
          <mxGeometry x="150" y="500" width="90" height="20" as="geometry" />
        </mxCell>
        <mxCell id="n0w97MOFuFyzSdgVQTcK-11" value="&#xa;&#xa;&lt;span style=&quot;font-family: helvetica; font-size: 12px; font-style: normal; font-weight: 400; letter-spacing: normal; text-align: center; text-indent: 0px; text-transform: none; word-spacing: 0px; background-color: rgb(248, 249, 250); display: inline; float: none;&quot;&gt;CategoryService类&lt;/span&gt;&#xa;&#xa;" style="text;html=1;strokeColor=none;fillColor=none;align=center;verticalAlign=middle;whiteSpace=wrap;rounded=0;fontColor=#333333;" vertex="1" parent="WIyWlLk6GJQsqaUBKTNV-1">
          <mxGeometry x="416" y="390" width="117" height="20" as="geometry" />
        </mxCell>
        <mxCell id="n0w97MOFuFyzSdgVQTcK-12" value="" style="endArrow=classic;html=1;fontColor=#333333;exitX=0.5;exitY=1;exitDx=0;exitDy=0;entryX=0.5;entryY=0;entryDx=0;entryDy=0;" edge="1" parent="WIyWlLk6GJQsqaUBKTNV-1" source="n0w97MOFuFyzSdgVQTcK-6" target="n0w97MOFuFyzSdgVQTcK-8">
          <mxGeometry width="50" height="50" relative="1" as="geometry">
            <mxPoint x="480" y="540" as="sourcePoint" />
            <mxPoint x="530" y="490" as="targetPoint" />
          </mxGeometry>
        </mxCell>
        <mxCell id="n0w97MOFuFyzSdgVQTcK-13" value="&lt;span style=&quot;color: rgb(0 , 0 , 0)&quot;&gt;返回Page4Navigator&lt;/span&gt;&lt;span style=&quot;color: rgb(0 , 0 , 0) ; font-size: 10px&quot;&gt;&amp;lt;Category&amp;gt;对象&lt;/span&gt;" style="text;html=1;strokeColor=none;fillColor=none;align=center;verticalAlign=middle;whiteSpace=wrap;rounded=0;fontColor=#333333;" vertex="1" parent="WIyWlLk6GJQsqaUBKTNV-1">
          <mxGeometry x="300" y="490" width="200" height="20" as="geometry" />
        </mxCell>
        <mxCell id="n0w97MOFuFyzSdgVQTcK-14" value="&lt;span style=&quot;font-family: &amp;#34;helvetica&amp;#34; ; font-size: 12px ; font-style: normal ; font-weight: 400 ; letter-spacing: normal ; text-align: center ; text-indent: 0px ; text-transform: none ; word-spacing: 0px ; background-color: rgb(248 , 249 , 250) ; display: inline ; float: none&quot;&gt;CategoryController类&lt;/span&gt;" style="text;html=1;strokeColor=none;fillColor=none;align=center;verticalAlign=middle;whiteSpace=wrap;rounded=0;fontColor=#333333;" vertex="1" parent="WIyWlLk6GJQsqaUBKTNV-1">
          <mxGeometry x="480" y="535" width="117" height="20" as="geometry" />
        </mxCell>
        <mxCell id="n0w97MOFuFyzSdgVQTcK-16" value="" style="endArrow=classic;html=1;fontColor=#333333;exitX=0.5;exitY=1;exitDx=0;exitDy=0;" edge="1" parent="WIyWlLk6GJQsqaUBKTNV-1">
          <mxGeometry width="50" height="50" relative="1" as="geometry">
            <mxPoint x="473" y="615" as="sourcePoint" />
            <mxPoint x="473" y="670" as="targetPoint" />
          </mxGeometry>
        </mxCell>
        <mxCell id="n0w97MOFuFyzSdgVQTcK-17" value="&lt;span style=&quot;color: rgb(0 , 0 , 0)&quot;&gt;返回Page4Navigator&lt;/span&gt;&lt;span style=&quot;color: rgb(0 , 0 , 0) ; font-size: 10px&quot;&gt;&amp;lt;Category&amp;gt;对象&lt;/span&gt;" style="text;html=1;strokeColor=none;fillColor=none;align=center;verticalAlign=middle;whiteSpace=wrap;rounded=0;fontColor=#333333;" vertex="1" parent="WIyWlLk6GJQsqaUBKTNV-1">
          <mxGeometry x="300" y="625" width="200" height="20" as="geometry" />
        </mxCell>
        <mxCell id="n0w97MOFuFyzSdgVQTcK-18" value="获取转换成Json格式的&lt;br&gt;Page4Navigator&lt;span style=&quot;color: rgb(0 , 0 , 0) ; font-size: 10px&quot;&gt;&amp;lt;Category&amp;gt;&lt;/span&gt;对象&lt;br&gt;显示数据到页面上" style="rounded=1;whiteSpace=wrap;html=1;fontColor=#333333;" vertex="1" parent="WIyWlLk6GJQsqaUBKTNV-1">
          <mxGeometry x="340" y="670" width="190" height="60" as="geometry" />
        </mxCell>
        <mxCell id="n0w97MOFuFyzSdgVQTcK-19" value="&lt;span style=&quot;color: rgb(51, 51, 51); font-family: helvetica; font-size: 12px; font-style: normal; font-weight: 400; letter-spacing: normal; text-align: center; text-indent: 0px; text-transform: none; word-spacing: 0px; background-color: rgb(248, 249, 250); display: inline; float: none;&quot;&gt;listCategory.html&lt;/span&gt;" style="text;whiteSpace=wrap;html=1;fontColor=#333333;" vertex="1" parent="WIyWlLk6GJQsqaUBKTNV-1">
          <mxGeometry x="487" y="645" width="110" height="30" as="geometry" />
        </mxCell>
      </root>
    </mxGraphModel>
  </diagram>
</mxfile>
